<?xml version="1.0" encoding="utf-8"?>
<!-- Generator: Adobe Illustrator 19.2.1, SVG Export Plug-In . SVG Version: 6.00 Build 0)  -->
<svg version="1.1" id="Layer_1" xmlns="http://www.w3.org/2000/svg" xmlns:xlink="http://www.w3.org/1999/xlink" x="0px" y="0px"
	 viewBox="0 0 400 300" style="enable-background:new 0 0 400 300;" xml:space="preserve">
<style type="text/css">
	.st0{fill:none;stroke:#000000;stroke-linecap:round;stroke-linejoin:round;}
	.st1{fill:none;stroke:#000000;stroke-linecap:round;stroke-linejoin:round;stroke-dasharray:8.9486,2.2372,8.9486,2.2372;}
	
		.st2{fill:none;stroke:#000000;stroke-linecap:round;stroke-linejoin:round;stroke-dasharray:8.9486,2.2372,8.9486,2.2372,8.9486,2.2372;}
	.st3{fill:none;stroke:#000000;stroke-linecap:round;stroke-linejoin:round;stroke-dasharray:7.4397,1.8599,7.4397,1.8599;}
	.st4{fill:none;stroke:#000000;stroke-linecap:round;stroke-linejoin:round;stroke-dasharray:8.5515,2.1379,8.5515,2.1379;}
	
		.st5{fill:none;stroke:#000000;stroke-linecap:round;stroke-linejoin:round;stroke-dasharray:8.5515,2.1379,8.5515,2.1379,8.5515,2.1379;}
	.st6{fill:none;stroke:#000000;stroke-linecap:round;stroke-linejoin:round;stroke-dasharray:6.0207,1.5052,6.0207,1.5052;}
	
		.st7{fill:none;stroke:#000000;stroke-linecap:round;stroke-linejoin:round;stroke-dasharray:6.0207,1.5052,6.0207,1.5052,6.0207,1.5052;}
	.st8{fill:none;stroke:#000000;stroke-linecap:round;stroke-linejoin:round;stroke-dasharray:7.5246,1.8812,7.5246,1.8812;}
	
		.st9{fill:none;stroke:#000000;stroke-linecap:round;stroke-linejoin:round;stroke-dasharray:7.5246,1.8812,7.5246,1.8812,7.5246,1.8812;}
	.st10{fill:none;stroke:#000000;stroke-linecap:round;stroke-linejoin:round;stroke-dasharray:6.9455,1.7364,6.9455,1.7364;}
	
		.st11{fill:none;stroke:#000000;stroke-linecap:round;stroke-linejoin:round;stroke-dasharray:6.9455,1.7364,6.9455,1.7364,6.9455,1.7364;}
	.st12{fill:none;stroke:#000000;stroke-linecap:round;stroke-linejoin:round;stroke-dasharray:7.4345,1.8586,7.4345,1.8586;}
	
		.st13{fill:none;stroke:#000000;stroke-linecap:round;stroke-linejoin:round;stroke-dasharray:7.4345,1.8586,7.4345,1.8586,7.4345,1.8586;}
	.st14{fill:none;stroke:#000000;stroke-linecap:round;stroke-linejoin:round;stroke-dasharray:8.0277,2.0069,8.0277,2.0069;}
	
		.st15{fill:none;stroke:#000000;stroke-linecap:round;stroke-linejoin:round;stroke-dasharray:8.0277,2.0069,8.0277,2.0069,8.0277,2.0069;}
	.st16{fill:none;stroke:#000000;stroke-linecap:round;stroke-linejoin:round;stroke-dasharray:7.3041,1.826,7.3041,1.826;}
	
		.st17{fill:none;stroke:#000000;stroke-linecap:round;stroke-linejoin:round;stroke-dasharray:7.3041,1.826,7.3041,1.826,7.3041,1.826;}
	.st18{fill:#FFFFFF;}
</style>
<g>
	<g>
		<line class="st0" x1="0" y1="300" x2="2.5" y2="296.9"/>
		<line class="st1" x1="3.9" y1="295.2" x2="17.4" y2="278.7"/>
		<line class="st2" x1="18.1" y1="277.9" x2="81.1" y2="200.8"/>
		<polyline class="st0" points="81.8,199.9 84.4,196.8 86.2,200.4 		"/>
		<line class="st3" x1="87" y1="202.1" x2="94.9" y2="217.9"/>
		<polyline class="st0" points="95.3,218.7 97.1,222.3 99.1,218.8 		"/>
		<line class="st4" x1="100.2" y1="217" x2="110.3" y2="199.4"/>
		<polyline class="st5" points="110.8,198.4 115.3,190.8 154.6,153.5 		"/>
		<polyline class="st0" points="155.4,152.8 158.3,150 158.8,154 		"/>
		<line class="st6" x1="158.9" y1="155.5" x2="160.6" y2="169.7"/>
		<line class="st7" x1="160.7" y1="170.4" x2="163.2" y2="192.1"/>
		<polyline class="st0" points="163.3,192.8 163.8,196.8 165.8,193.4 		"/>
		<line class="st8" x1="166.8" y1="191.8" x2="176.1" y2="176.5"/>
		<line class="st9" x1="176.6" y1="175.7" x2="205.4" y2="128.3"/>
		<polyline class="st0" points="205.9,127.5 208,124.1 209.7,127.7 		"/>
		<line class="st10" x1="210.4" y1="129.3" x2="217.3" y2="144.3"/>
		<polyline class="st11" points="217.6,145.1 235.3,183.5 245.4,217 		"/>
		<polyline class="st0" points="245.6,217.8 246.8,221.7 248.8,218.2 		"/>
		<line class="st12" x1="249.7" y1="216.6" x2="258.4" y2="201.2"/>
		<line class="st13" x1="258.8" y1="200.4" x2="299.5" y2="128.4"/>
		<polyline class="st0" points="300,127.6 301.9,124.1 303.2,127.9 		"/>
		<line class="st14" x1="303.9" y1="129.8" x2="310" y2="147.8"/>
		<line class="st15" x1="310.3" y1="148.8" x2="319.7" y2="176.3"/>
		<polyline class="st0" points="320,177.3 321.3,181.1 322.8,177.3 		"/>
		<line class="st16" x1="323.5" y1="175.6" x2="329.9" y2="159.5"/>
		<polyline class="st17" points="330.3,158.7 354.7,97.4 382.5,76.8 397.9,44.9 		"/>
		<line class="st0" x1="398.3" y1="44.1" x2="400" y2="40.5"/>
	</g>
</g>
</svg>
