<?xml version="1.0" encoding="utf-8"?>
<!-- Generator: Adobe Illustrator 19.2.1, SVG Export Plug-In . SVG Version: 6.00 Build 0)  -->
<svg version="1.1" id="Layer_1" xmlns:sketch="http://www.bohemiancoding.com/sketch/ns"
	 xmlns="http://www.w3.org/2000/svg" xmlns:xlink="http://www.w3.org/1999/xlink" x="0px" y="0px" viewBox="0 0 121 96.5"
	 style="enable-background:new 0 0 121 96.5;" xml:space="preserve">
<style type="text/css">
	.st0{stroke:#FFFFFF;stroke-width:2;stroke-miterlimit:10;}
</style>
<g sketch:type="MSPage">
	<path sketch:type="MSShapeGroup" class="st0" d="M13.3,88.1c-2.5-0.7-2.8-3.7-2.8-3.7l18.8-45.9c0.8-2,5-2,6.3,0
		c4.7,7.3,14,21.8,14,21.8l19-34c0.8-1.4,4.5-1.3,5.6,0.2c3.8,5.4,11.3,16.1,11.3,16.1l18.4-33.3c0,0,2.6-2,4.8-0.7
		c2.2,1.3,1.7,4,1.7,4L88.7,52.5c-0.7,1.2-3.7,1.1-4.5-0.1L71.8,34.8L52.4,69.6c-0.8,1.4-4.1,1.2-5-0.2C42.6,62,33,47.3,33,47.3
		L17.9,86.5C17.9,86.5,15.8,88.8,13.3,88.1z"/>
</g>
</svg>
