<?xml version="1.0" encoding="utf-8"?>
<!-- Generator: Adobe Illustrator 19.2.1, SVG Export Plug-In . SVG Version: 6.00 Build 0)  -->
<svg version="1.1" id="Layer_1" xmlns="http://www.w3.org/2000/svg" xmlns:xlink="http://www.w3.org/1999/xlink" x="0px" y="0px"
	 viewBox="0 0 75 75" style="enable-background:new 0 0 75 75;" xml:space="preserve">
<g>
	<path d="M36.1,1.5C16.2,2.3,0.8,19,1.5,38.9S19,74.2,38.9,73.5S74.2,56,73.5,36.1S56,0.8,36.1,1.5z M31.3,49.5c0,0.5-0.4,1-0.9,1
		l-6.6,0.3c-0.5,0-1-0.4-1-0.9L22.4,38c0-0.5,0.4-1,0.9-1l6.6-0.3c0.5,0,1,0.4,1,0.9L31.3,49.5z M42.2,49.1c0,0.5-0.4,1-0.9,1
		l-6.6,0.3c-0.5,0-1-0.4-1-0.9L33,31.8c0-0.5,0.4-1,0.9-1l6.6-0.3c0.5,0,1,0.4,1,0.9L42.2,49.1z M53.1,48.6c0,0.5-0.4,1-0.9,1
		l-6.6,0.3c-0.5,0-1-0.4-1-0.9l-0.9-23.5c0-0.5,0.4-1,0.9-1l6.6-0.3c0.5,0,1,0.4,1,0.9L53.1,48.6z"/>
	<rect x="35.3" y="32.6" transform="matrix(0.9992 -3.911992e-02 3.911992e-02 0.9992 -1.5525 1.5024)" width="4.7" height="15.7"/>
	<rect x="24.5" y="38.8" transform="matrix(0.9992 -3.911992e-02 3.911992e-02 0.9992 -1.6918 1.0839)" width="4.7" height="9.9"/>
	<rect x="46.1" y="26.3" transform="matrix(0.9992 -3.911992e-02 3.911992e-02 0.9992 -1.4133 1.9209)" width="4.7" height="21.6"/>
</g>
</svg>
